<?xml version="1.0" standalone="no"?><!-- Generator: Gravit.io --><svg xmlns="http://www.w3.org/2000/svg" xmlns:xlink="http://www.w3.org/1999/xlink" style="isolation:isolate" viewBox="110.5 723 32 32" width="32" height="32"><path d=" M 114.808 723 C 112.432 723 110.5 724.932 110.5 727.308 L 110.5 750.692 C 110.5 753.068 112.432 755 114.808 755 L 138.192 755 C 140.568 755 142.5 753.068 142.5 750.692 L 142.5 727.308 C 142.5 724.932 140.568 723 138.192 723 L 114.808 723 Z  M 114.808 724.231 L 138.192 724.231 C 139.892 724.231 141.269 725.608 141.269 727.308 L 141.269 750.692 C 141.269 752.392 139.892 753.769 138.192 753.769 L 131.36 753.769 L 131.36 745.753 L 134.997 745.753 C 135.298 745.753 135.555 745.536 135.606 745.238 L 136.306 740.959 C 136.334 740.781 136.284 740.599 136.166 740.461 C 136.049 740.323 135.878 740.243 135.697 740.243 L 131.36 740.243 L 131.36 739.247 C 131.36 738.079 131.603 737.558 133.038 737.558 L 135.901 737.558 C 136.241 737.558 136.517 737.282 136.517 736.942 L 136.517 732.486 C 136.518 732.17 136.278 731.905 135.964 731.875 C 135.048 731.783 133.232 731.615 132.382 731.615 C 128.421 731.615 125.863 734.342 125.863 738.56 L 125.863 740.243 L 122.192 740.243 C 121.854 740.243 121.577 740.519 121.577 740.858 L 121.577 745.137 C 121.577 745.477 121.852 745.753 122.192 745.753 L 125.86 745.753 L 125.86 753.769 L 114.808 753.769 C 113.108 753.769 111.731 752.392 111.731 750.692 L 111.731 727.308 C 111.731 725.608 113.108 724.231 114.808 724.231 Z  M 114.192 726.692 C 113.852 726.692 113.577 726.968 113.577 727.308 L 113.577 728.538 C 113.577 728.878 113.852 729.154 114.192 729.154 C 114.532 729.154 114.808 728.878 114.808 728.538 L 114.808 727.308 C 114.808 726.968 114.532 726.692 114.192 726.692 Z  M 117.269 726.692 C 116.929 726.692 116.654 726.968 116.654 727.308 L 116.654 728.538 C 116.654 728.878 116.929 729.154 117.269 729.154 C 117.609 729.154 117.885 728.878 117.885 728.538 L 117.885 727.308 C 117.885 726.968 117.609 726.692 117.269 726.692 Z  M 120.346 726.692 C 120.006 726.692 119.731 726.968 119.731 727.308 L 119.731 728.538 C 119.731 728.878 120.006 729.154 120.346 729.154 C 120.686 729.154 120.962 728.878 120.962 728.538 L 120.962 727.308 C 120.962 726.968 120.686 726.692 120.346 726.692 Z  M 123.423 726.692 C 123.083 726.692 122.808 726.968 122.808 727.308 L 122.808 728.538 C 122.808 728.878 123.083 729.154 123.423 729.154 C 123.763 729.154 124.038 728.878 124.038 728.538 L 124.038 727.308 C 124.038 726.968 123.763 726.692 123.423 726.692 Z  M 126.5 726.692 C 126.16 726.692 125.885 726.968 125.885 727.308 L 125.885 728.538 C 125.885 728.878 126.16 729.154 126.5 729.154 C 126.84 729.154 127.115 728.878 127.115 728.538 L 127.115 727.308 C 127.115 726.968 126.84 726.692 126.5 726.692 Z  M 129.577 726.692 C 129.237 726.692 128.962 726.968 128.962 727.308 L 128.962 728.538 C 128.962 728.878 129.237 729.154 129.577 729.154 C 129.917 729.154 130.192 728.878 130.192 728.538 L 130.192 727.308 C 130.192 726.968 129.917 726.692 129.577 726.692 Z  M 132.654 726.692 C 132.314 726.692 132.038 726.968 132.038 727.308 L 132.038 728.538 C 132.038 728.878 132.314 729.154 132.654 729.154 C 132.994 729.154 133.269 728.878 133.269 728.538 L 133.269 727.308 C 133.269 726.968 132.994 726.692 132.654 726.692 Z  M 135.731 726.692 C 135.391 726.692 135.115 726.968 135.115 727.308 L 135.115 728.538 C 135.115 728.878 135.391 729.154 135.731 729.154 C 136.071 729.154 136.346 728.878 136.346 728.538 L 136.346 727.308 C 136.346 726.968 136.071 726.692 135.731 726.692 Z  M 138.808 726.692 C 138.468 726.692 138.192 726.968 138.192 727.308 L 138.192 728.538 C 138.192 728.878 138.468 729.154 138.808 729.154 C 139.148 729.154 139.423 728.878 139.423 728.538 L 139.423 727.308 C 139.423 726.968 139.148 726.692 138.808 726.692 Z  M 132.382 732.846 C 133.324 732.846 134.298 732.902 135.286 733.012 L 135.286 736.327 L 133.042 736.327 C 130.434 736.327 130.133 737.993 130.133 739.247 L 130.133 741.474 L 134.974 741.474 L 134.474 744.522 L 130.13 744.522 L 130.13 753.769 L 127.092 753.769 L 127.092 744.522 L 122.808 744.522 L 122.808 741.474 L 127.094 741.474 L 127.094 738.56 C 127.094 734.983 129.069 732.846 132.382 732.846 Z " fill="rgb(0,0,0)"/></svg>