<?xml version="1.0" standalone="no"?><!-- Generator: Gravit.io --><svg xmlns="http://www.w3.org/2000/svg" xmlns:xlink="http://www.w3.org/1999/xlink" style="isolation:isolate" viewBox="155.3 723 32 32" width="32" height="32"><path d=" M 171.3 723 C 162.479 723 155.3 730.179 155.3 739 C 155.3 745.978 159.794 751.925 166.035 754.106 C 166.123 754.168 166.229 754.207 166.341 754.209 C 167.942 754.733 169.616 755 171.3 755 C 180.121 755 187.3 747.821 187.3 739 C 187.3 730.179 180.121 723 171.3 723 Z  M 171.3 724.103 C 179.514 724.103 186.197 730.786 186.197 739 C 186.197 745.433 182.097 750.924 176.376 753.007 C 176.315 752.827 176.266 752.562 176.266 752.382 L 176.266 749.483 C 176.266 748.327 175.701 747.069 175.145 746.224 C 178.207 745.707 181.707 744.118 181.707 738.19 C 181.707 736.565 181.198 735.131 180.197 733.925 C 180.416 733.2 180.688 731.673 179.93 729.754 C 179.868 729.601 179.742 729.482 179.585 729.431 C 179.429 729.383 178.013 729.015 175.074 730.944 C 173.84 730.63 172.573 730.472 171.3 730.472 C 170.03 730.472 168.766 730.63 167.535 730.944 C 164.595 729.013 163.175 729.381 163.022 729.431 C 162.865 729.482 162.738 729.601 162.677 729.754 C 161.916 731.674 162.188 733.2 162.412 733.925 C 161.405 735.131 160.897 736.565 160.897 738.19 C 160.897 744.065 164.334 745.683 167.371 746.222 C 166.989 746.705 166.589 747.33 166.412 747.966 C 165.628 748.183 164.02 748.19 162.94 746.341 C 162.902 746.269 161.957 744.593 160.095 744.463 C 159.8 744.465 159.05 744.513 158.869 745.087 C 158.668 745.722 159.371 746.205 159.673 746.41 C 159.692 746.422 159.723 746.439 159.742 746.45 C 159.776 746.468 160.581 746.89 161.179 748.399 C 161.304 748.793 162.401 751.765 166.339 751.242 C 166.341 751.677 166.339 751.897 166.334 752.071 L 166.334 752.379 C 166.334 752.558 166.28 752.828 166.22 753.002 C 160.498 750.92 156.403 745.429 156.403 739 C 156.403 730.786 163.086 724.103 171.3 724.103 Z  M 171.166 725.761 C 169.008 725.783 166.891 726.355 165.015 727.423 C 164.888 727.494 164.795 727.614 164.756 727.754 C 164.717 727.895 164.736 728.046 164.808 728.172 C 164.88 728.3 165 728.394 165.142 728.432 C 165.283 728.471 165.434 728.452 165.561 728.379 C 167.859 727.075 170.533 726.591 173.143 727.009 C 173.287 727.032 173.435 726.997 173.553 726.911 C 173.672 726.825 173.751 726.696 173.774 726.551 C 173.821 726.251 173.617 725.968 173.317 725.918 C 172.606 725.805 171.887 725.752 171.166 725.761 L 171.166 725.761 Z  M 175.524 726.524 C 175.303 726.533 175.11 726.674 175.033 726.881 C 174.981 727.019 174.986 727.171 175.047 727.304 C 175.107 727.438 175.219 727.542 175.356 727.593 C 175.748 727.739 176.136 727.908 176.515 728.097 C 176.592 728.137 176.677 728.158 176.764 728.158 C 176.964 728.158 177.158 728.047 177.257 727.854 C 177.392 727.581 177.283 727.25 177.011 727.112 C 176.598 726.905 176.174 726.72 175.741 726.559 C 175.672 726.533 175.598 726.522 175.523 726.524 L 175.524 726.524 Z  M 179.015 730.474 C 179.608 732.218 179.203 733.481 179.057 733.839 C 178.977 734.037 179.018 734.263 179.162 734.42 C 180.117 735.466 180.602 736.733 180.602 738.19 C 180.602 743.782 177.287 744.905 174.042 745.265 C 173.823 745.288 173.64 745.439 173.574 745.649 C 173.509 745.859 173.575 746.087 173.742 746.23 C 174.177 746.603 175.162 748.222 175.162 749.483 L 175.162 752.382 C 175.162 752.393 175.164 752.873 175.322 753.34 C 174.013 753.709 172.66 753.896 171.3 753.897 C 169.904 753.897 168.554 753.698 167.272 753.338 C 167.372 753.028 167.427 752.705 167.436 752.379 L 167.438 752.084 C 167.44 751.834 167.445 751.495 167.438 750.584 C 167.436 750.417 167.36 750.26 167.231 750.155 C 167.1 750.052 166.93 750.012 166.768 750.047 C 163.063 750.855 162.261 748.181 162.231 748.069 C 162.225 748.049 162.218 748.032 162.211 748.013 C 161.682 746.668 160.983 745.983 160.567 745.673 C 161.466 745.989 161.968 746.866 161.981 746.886 C 163.44 749.383 165.85 749.449 167.11 748.884 C 167.284 748.807 167.405 748.645 167.431 748.457 C 167.543 747.668 168.41 746.625 168.848 746.241 C 169.012 746.097 169.075 745.87 169.009 745.662 C 168.946 745.454 168.765 745.303 168.548 745.278 C 165.311 744.91 162.001 743.778 162.001 738.19 C 162.001 736.735 162.485 735.466 163.445 734.42 C 163.589 734.263 163.629 734.036 163.548 733.839 C 163.402 733.481 162.994 732.222 163.585 730.476 C 164.054 730.491 165.198 730.692 167.126 732 C 167.259 732.091 167.429 732.118 167.585 732.075 C 168.738 731.754 170.024 731.582 171.3 731.575 C 172.58 731.582 173.867 731.754 175.022 732.075 C 175.178 732.118 175.345 732.091 175.479 732 C 177.416 730.686 178.561 730.489 179.015 730.474 L 179.015 730.474 Z  M 165.99 740.873 C 165.77 740.845 165.554 740.952 165.445 741.145 L 164.893 742.099 C 164.819 742.226 164.799 742.376 164.837 742.518 C 164.874 742.659 164.967 742.78 165.093 742.853 C 165.357 743.005 165.693 742.914 165.845 742.651 L 166.397 741.696 C 166.49 741.537 166.496 741.341 166.414 741.175 C 166.333 741.01 166.173 740.896 165.99 740.873 Z  M 176.61 740.873 C 176.427 740.897 176.268 741.011 176.186 741.177 C 176.104 741.343 176.11 741.538 176.203 741.698 L 176.755 742.653 C 176.828 742.78 176.948 742.872 177.089 742.909 C 177.23 742.947 177.381 742.927 177.507 742.853 C 177.634 742.78 177.726 742.66 177.764 742.519 C 177.801 742.378 177.781 742.227 177.707 742.101 L 177.155 741.147 C 177.045 740.954 176.83 740.847 176.61 740.873 Z  M 174.162 741.948 C 174.088 741.937 174.012 741.942 173.94 741.963 C 173.646 742.042 173.472 742.344 173.55 742.638 L 173.837 743.705 C 173.902 743.945 174.12 744.112 174.369 744.112 C 174.541 744.112 174.703 744.033 174.807 743.897 C 174.912 743.761 174.947 743.584 174.903 743.418 L 174.619 742.353 C 174.561 742.139 174.382 741.98 174.162 741.948 L 174.162 741.948 Z  M 168.44 741.948 C 168.22 741.979 168.039 742.139 167.981 742.353 L 167.697 743.42 C 167.619 743.714 167.793 744.016 168.087 744.095 C 168.134 744.107 168.183 744.113 168.231 744.112 C 168.472 744.112 168.696 743.951 168.763 743.705 L 169.05 742.638 C 169.098 742.459 169.053 742.268 168.93 742.129 C 168.807 741.991 168.623 741.923 168.44 741.948 L 168.44 741.948 Z  M 171.3 742.31 C 170.994 742.31 170.748 742.556 170.748 742.862 L 170.748 743.966 C 170.748 744.272 170.994 744.517 171.3 744.517 C 171.606 744.517 171.852 744.272 171.852 743.966 L 171.852 742.862 C 171.852 742.556 171.606 742.31 171.3 742.31 Z " fill="rgb(0,0,0)"/></svg>