<?xml version="1.0" standalone="no"?><!-- Generator: Gravit.io --><svg xmlns="http://www.w3.org/2000/svg" xmlns:xlink="http://www.w3.org/1999/xlink" style="isolation:isolate" viewBox="289.7 722.369 32 32" width="32" height="32"><path d=" M 306.02 722.369 C 297.012 722.369 289.7 729.537 289.7 738.369 C 289.7 747.2 297.012 754.369 306.02 754.369 C 312.7 754.369 316.953 751.204 319.284 747.284 C 321.615 743.361 322.098 738.723 321.416 735.558 L 321.333 735.172 L 305.525 735.151 L 305.525 742.05 L 313.859 742.05 C 312.64 745.108 309.969 747.243 306.02 747.243 C 301.014 747.242 296.968 743.276 296.968 738.369 C 296.968 733.462 301.014 729.496 306.02 729.496 C 308.268 729.496 310.315 730.302 311.899 731.634 L 312.246 731.924 L 317.391 726.882 L 317.007 726.541 C 314.005 723.852 310.085 722.364 306.02 722.369 L 306.02 722.369 Z  M 306.02 723.339 C 309.811 723.339 313.25 724.716 315.926 726.946 L 312.167 730.632 C 310.466 729.329 308.343 728.526 306.02 728.526 C 300.481 728.526 295.979 732.937 295.979 738.369 C 295.979 743.801 300.479 748.211 306.02 748.211 C 310.641 748.211 313.925 745.473 315.104 741.708 L 315.302 741.081 L 306.514 741.081 L 306.514 736.123 L 320.489 736.142 C 321.003 739.026 320.531 743.259 318.428 746.793 C 316.24 750.475 312.387 753.399 306.02 753.399 C 297.547 753.399 290.689 746.676 290.689 738.369 C 290.689 730.062 297.547 723.339 306.02 723.339 L 306.02 723.339 Z  M 305.718 724.793 C 305.446 724.793 305.224 725.011 305.224 725.278 C 305.224 725.545 305.446 725.763 305.718 725.763 C 305.99 725.763 306.213 725.545 306.213 725.278 C 306.213 725.011 305.99 724.793 305.718 724.793 Z  M 308.335 725.043 C 308.094 725.038 307.884 725.203 307.837 725.435 C 307.785 725.697 307.959 725.952 308.228 726.005 C 308.495 726.056 308.754 725.886 308.808 725.625 C 308.861 725.362 308.688 725.107 308.42 725.053 C 308.392 725.049 308.364 725.045 308.335 725.043 L 308.335 725.043 Z  M 303.117 725.045 C 303.084 725.045 303.051 725.047 303.018 725.053 C 302.75 725.105 302.576 725.36 302.629 725.623 C 302.682 725.887 302.943 726.057 303.211 726.005 C 303.34 725.98 303.453 725.906 303.526 725.799 C 303.599 725.692 303.626 725.561 303.6 725.435 C 303.553 725.21 303.353 725.047 303.117 725.045 Z  M 300.614 725.79 C 300.448 725.788 300.293 725.868 300.2 726.003 C 300.107 726.138 300.09 726.31 300.154 726.46 C 300.204 726.579 300.3 726.674 300.421 726.723 C 300.542 726.772 300.678 726.772 300.8 726.723 C 301.053 726.619 301.172 726.337 301.068 726.089 C 300.991 725.909 300.813 725.791 300.614 725.79 Z  M 310.839 725.79 C 310.634 725.785 310.448 725.904 310.369 726.089 C 310.265 726.337 310.385 726.619 310.637 726.723 C 310.758 726.772 310.895 726.772 311.016 726.723 C 311.137 726.673 311.233 726.579 311.283 726.46 C 311.345 726.312 311.33 726.143 311.241 726.009 C 311.152 725.875 311.001 725.793 310.838 725.79 L 310.839 725.79 Z  M 298.308 726.998 C 298.208 726.997 298.11 727.026 298.026 727.081 C 297.88 727.178 297.797 727.343 297.809 727.516 C 297.82 727.689 297.925 727.842 298.084 727.918 C 298.242 727.995 298.43 727.982 298.577 727.886 C 298.686 727.815 298.761 727.704 298.787 727.579 C 298.813 727.453 298.786 727.322 298.714 727.215 C 298.624 727.081 298.472 727 298.308 726.997 L 298.308 726.998 Z  M 313.142 726.998 C 312.974 726.996 312.816 727.078 312.723 727.216 C 312.582 727.438 312.647 727.729 312.868 727.874 C 313.09 728.02 313.389 727.966 313.544 727.754 C 313.617 727.647 313.644 727.516 313.619 727.39 C 313.595 727.263 313.519 727.152 313.409 727.081 C 313.33 727.028 313.237 726.999 313.142 726.998 L 313.142 726.998 Z  M 296.286 728.627 C 296.153 728.627 296.024 728.678 295.931 728.77 C 295.838 728.861 295.786 728.984 295.786 729.112 C 295.786 729.24 295.838 729.363 295.931 729.454 C 296.023 729.545 296.148 729.596 296.279 729.596 C 296.41 729.596 296.535 729.545 296.628 729.454 C 296.72 729.363 296.772 729.24 296.772 729.112 C 296.772 728.984 296.72 728.861 296.628 728.77 C 296.538 728.68 296.415 728.628 296.286 728.626 L 296.286 728.627 Z  M 294.627 730.611 C 294.459 730.608 294.301 730.688 294.208 730.825 C 294.135 730.932 294.109 731.063 294.134 731.189 C 294.16 731.315 294.236 731.426 294.345 731.498 C 294.52 731.614 294.752 731.608 294.92 731.483 C 295.089 731.358 295.158 731.141 295.092 730.944 C 295.025 730.747 294.838 730.613 294.627 730.611 Z  M 293.397 732.875 C 293.193 732.87 293.007 732.989 292.929 733.174 C 292.826 733.421 292.945 733.705 293.196 733.808 C 293.449 733.911 293.738 733.793 293.843 733.545 C 293.893 733.426 293.893 733.293 293.843 733.174 C 293.792 733.055 293.696 732.961 293.574 732.912 C 293.518 732.889 293.458 732.876 293.397 732.875 Z  M 292.64 735.331 C 292.377 735.324 292.155 735.519 292.133 735.775 C 292.111 736.032 292.298 736.26 292.558 736.296 C 292.817 736.331 293.06 736.161 293.111 735.909 C 293.164 735.647 292.992 735.392 292.725 735.339 C 292.696 735.335 292.668 735.331 292.64 735.331 Z  M 292.369 737.884 C 292.097 737.884 291.875 738.102 291.875 738.369 C 291.875 738.636 292.097 738.854 292.369 738.854 C 292.641 738.854 292.864 738.636 292.864 738.369 C 292.864 738.102 292.641 737.884 292.369 737.884 Z  M 309.179 737.884 C 308.907 737.884 308.685 738.102 308.685 738.369 C 308.685 738.636 308.907 738.854 309.179 738.854 C 309.451 738.854 309.674 738.636 309.674 738.369 C 309.674 738.102 309.451 737.884 309.179 737.884 Z  M 311.651 737.884 C 311.379 737.884 311.157 738.102 311.157 738.369 C 311.157 738.636 311.379 738.854 311.651 738.854 C 311.923 738.854 312.146 738.636 312.146 738.369 C 312.146 738.102 311.923 737.884 311.651 737.884 Z  M 314.123 737.884 C 313.851 737.884 313.629 738.102 313.629 738.369 C 313.629 738.636 313.851 738.854 314.123 738.854 C 314.395 738.854 314.618 738.636 314.618 738.369 C 314.618 738.102 314.395 737.884 314.123 737.884 Z  M 316.595 737.884 C 316.324 737.884 316.101 738.102 316.101 738.369 C 316.101 738.636 316.324 738.854 316.595 738.854 C 316.867 738.854 317.09 738.636 317.09 738.369 C 317.09 738.102 316.867 737.884 316.595 737.884 Z  M 319.067 737.884 C 318.796 737.884 318.573 738.102 318.573 738.369 C 318.573 738.636 318.796 738.854 319.067 738.854 C 319.339 738.854 319.562 738.636 319.562 738.369 C 319.562 738.102 319.339 737.884 319.067 737.884 Z  M 292.628 740.437 C 292.44 740.438 292.268 740.542 292.185 740.708 C 292.102 740.873 292.121 741.07 292.235 741.217 C 292.349 741.363 292.538 741.434 292.722 741.399 C 292.913 741.402 293.088 741.298 293.174 741.131 C 293.26 740.964 293.24 740.764 293.123 740.616 C 293.007 740.468 292.814 740.398 292.628 740.437 Z  M 318.824 740.437 C 318.569 740.434 318.353 740.62 318.324 740.869 C 318.296 741.118 318.464 741.347 318.714 741.399 C 318.982 741.451 319.242 741.281 319.297 741.019 C 319.35 740.755 319.175 740.499 318.907 740.446 C 318.879 740.442 318.852 740.439 318.824 740.437 L 318.824 740.437 Z  M 318.063 742.892 C 317.858 742.888 317.673 743.008 317.594 743.193 C 317.544 743.311 317.544 743.445 317.595 743.564 C 317.645 743.682 317.741 743.776 317.863 743.825 C 318.115 743.927 318.404 743.81 318.509 743.564 C 318.572 743.415 318.556 743.247 318.467 743.112 C 318.378 742.978 318.227 742.895 318.063 742.892 L 318.063 742.892 Z  M 293.389 742.894 C 293.324 742.894 293.258 742.905 293.196 742.929 C 293.075 742.979 292.979 743.074 292.929 743.193 C 292.88 743.312 292.88 743.445 292.928 743.564 C 292.978 743.683 293.074 743.778 293.196 743.827 C 293.317 743.876 293.454 743.875 293.575 743.825 C 293.697 743.777 293.793 743.683 293.843 743.564 C 293.906 743.414 293.889 743.244 293.798 743.11 C 293.707 742.976 293.553 742.894 293.389 742.894 Z  M 316.828 745.157 C 316.582 745.152 316.37 745.325 316.33 745.563 C 316.29 745.801 316.435 746.032 316.67 746.104 C 316.904 746.176 317.158 746.068 317.264 745.851 C 317.37 745.633 317.297 745.372 317.092 745.238 C 317.015 745.185 316.922 745.157 316.828 745.157 Z  M 294.625 745.157 C 294.526 745.155 294.428 745.183 294.345 745.238 C 294.119 745.387 294.058 745.688 294.209 745.911 C 294.361 746.132 294.668 746.193 294.896 746.043 C 295.075 745.925 295.155 745.705 295.093 745.502 C 295.031 745.299 294.841 745.159 294.625 745.157 L 294.625 745.157 Z  M 296.287 747.142 C 296.153 747.14 296.025 747.191 295.931 747.284 C 295.838 747.374 295.786 747.497 295.786 747.626 C 295.786 747.754 295.838 747.877 295.931 747.967 C 296.023 748.058 296.149 748.109 296.28 748.109 C 296.41 748.109 296.536 748.058 296.628 747.967 C 296.721 747.877 296.773 747.754 296.773 747.626 C 296.773 747.497 296.721 747.374 296.628 747.284 C 296.539 747.193 296.415 747.142 296.287 747.142 Z  M 315.165 747.142 C 315.031 747.14 314.903 747.191 314.81 747.284 C 314.717 747.374 314.665 747.497 314.665 747.626 C 314.665 747.754 314.717 747.877 314.81 747.967 C 314.902 748.058 315.027 748.109 315.158 748.109 C 315.289 748.109 315.414 748.058 315.507 747.967 C 315.599 747.877 315.652 747.754 315.652 747.626 C 315.652 747.497 315.599 747.374 315.507 747.284 C 315.417 747.193 315.294 747.142 315.165 747.142 Z  M 298.312 748.768 C 298.144 748.765 297.986 748.846 297.893 748.983 C 297.767 749.167 297.783 749.411 297.934 749.577 C 298.085 749.742 298.33 749.786 298.531 749.684 C 298.732 749.582 298.836 749.359 298.784 749.143 C 298.733 748.927 298.538 748.773 298.312 748.769 L 298.312 748.768 Z  M 313.14 748.768 C 313.041 748.767 312.943 748.794 312.86 748.848 C 312.751 748.919 312.675 749.031 312.649 749.157 C 312.624 749.284 312.651 749.415 312.725 749.522 C 312.876 749.744 313.183 749.805 313.411 749.657 C 313.637 749.507 313.699 749.206 313.546 748.983 C 313.456 748.849 313.304 748.769 313.14 748.768 Z  M 300.622 749.977 C 300.418 749.972 300.232 750.092 300.154 750.278 C 300.078 750.459 300.12 750.668 300.262 750.806 C 300.403 750.945 300.616 750.986 300.801 750.911 C 300.985 750.836 301.106 750.659 301.106 750.463 C 301.105 750.266 300.984 750.09 300.8 750.015 C 300.743 749.992 300.683 749.979 300.622 749.977 L 300.622 749.977 Z  M 310.831 749.977 C 310.765 749.977 310.699 749.99 310.639 750.015 C 310.387 750.118 310.266 750.401 310.369 750.649 C 310.446 750.83 310.627 750.948 310.827 750.948 C 311.027 750.948 311.207 750.83 311.284 750.649 C 311.335 750.53 311.335 750.397 311.284 750.278 C 311.209 750.097 311.03 749.978 310.831 749.977 L 310.831 749.977 Z  M 303.129 750.723 C 302.952 750.719 302.786 750.807 302.694 750.955 C 302.602 751.102 302.597 751.287 302.681 751.439 C 302.765 751.592 302.926 751.688 303.102 751.693 C 303.376 751.7 303.603 751.489 303.61 751.221 C 303.617 750.953 303.402 750.73 303.129 750.723 L 303.129 750.723 Z  M 308.324 750.725 C 308.291 750.723 308.259 750.726 308.227 750.733 C 307.959 750.786 307.785 751.039 307.837 751.303 C 307.892 751.566 308.152 751.736 308.42 751.686 C 308.548 751.659 308.662 751.585 308.735 751.479 C 308.837 751.33 308.846 751.139 308.76 750.981 C 308.674 750.823 308.506 750.725 308.324 750.725 Z  M 305.718 750.975 C 305.446 750.975 305.224 751.193 305.224 751.46 C 305.224 751.726 305.446 751.945 305.718 751.945 C 305.99 751.945 306.213 751.726 306.213 751.46 C 306.213 751.193 305.99 750.975 305.718 750.975 Z " fill="rgb(0,0,0)"/></svg>