<?xml version="1.0" standalone="no"?><!-- Generator: Gravit.io --><svg xmlns="http://www.w3.org/2000/svg" xmlns:xlink="http://www.w3.org/1999/xlink" style="isolation:isolate" viewBox="334.5 723 32 32" width="32" height="32"><path d=" M 338.808 723 C 336.432 723 334.5 724.932 334.5 727.308 L 334.5 750.692 C 334.5 753.068 336.432 755 338.808 755 L 362.192 755 C 364.568 755 366.5 753.068 366.5 750.692 L 366.5 727.308 C 366.5 724.932 364.568 723 362.192 723 L 338.808 723 Z  M 338.808 724.231 L 362.192 724.231 C 363.89 724.231 365.269 725.61 365.269 727.308 L 365.269 750.692 C 365.269 752.39 363.89 753.769 362.192 753.769 L 338.808 753.769 C 337.11 753.769 335.731 752.39 335.731 750.692 L 335.731 727.308 C 335.731 725.61 337.11 724.231 338.808 724.231 Z  M 360.346 727.308 C 359.33 727.308 358.5 728.137 358.5 729.154 C 358.5 730.17 359.33 731 360.346 731 C 361.363 731 362.192 730.17 362.192 729.154 C 362.192 728.137 361.363 727.308 360.346 727.308 Z  M 360.346 728.25 C 360.844 728.25 361.25 728.656 361.25 729.154 C 361.25 729.652 360.844 730.058 360.346 730.058 C 359.848 730.058 359.442 729.652 359.442 729.154 C 359.442 728.656 359.848 728.25 360.346 728.25 Z  M 350.5 730.385 C 345.75 730.385 341.885 734.25 341.885 739 C 341.885 743.75 345.75 747.615 350.5 747.615 C 355.25 747.615 359.115 743.75 359.115 739 C 359.115 734.25 355.25 730.385 350.5 730.385 Z  M 350.5 731.615 C 354.572 731.615 357.885 734.928 357.885 739 C 357.885 743.072 354.572 746.385 350.5 746.385 C 346.428 746.385 343.115 743.072 343.115 739 C 343.115 734.928 346.428 731.615 350.5 731.615 Z  M 350.5 732.846 C 347.106 732.846 344.346 735.606 344.346 739 C 344.346 742.394 347.106 745.154 350.5 745.154 C 353.894 745.154 356.654 742.394 356.654 739 C 356.654 735.606 353.894 732.846 350.5 732.846 Z  M 350.5 734.077 C 353.214 734.077 355.423 736.286 355.423 739 C 355.423 741.714 353.214 743.923 350.5 743.923 C 347.786 743.923 345.577 741.714 345.577 739 C 345.577 736.286 347.786 734.077 350.5 734.077 Z  M 338.192 749.462 C 337.854 749.462 337.577 749.738 337.577 750.077 L 337.577 751.308 C 337.577 751.646 337.854 751.923 338.192 751.923 C 338.531 751.923 338.808 751.646 338.808 751.308 L 338.808 750.077 C 338.808 749.738 338.531 749.462 338.192 749.462 Z  M 341.269 749.462 C 340.931 749.462 340.654 749.738 340.654 750.077 L 340.654 751.308 C 340.654 751.646 340.931 751.923 341.269 751.923 C 341.608 751.923 341.885 751.646 341.885 751.308 L 341.885 750.077 C 341.885 749.738 341.608 749.462 341.269 749.462 Z  M 344.346 749.462 C 344.008 749.462 343.731 749.738 343.731 750.077 L 343.731 751.308 C 343.731 751.646 344.008 751.923 344.346 751.923 C 344.685 751.923 344.962 751.646 344.962 751.308 L 344.962 750.077 C 344.962 749.738 344.685 749.462 344.346 749.462 Z  M 347.423 749.462 C 347.085 749.462 346.808 749.738 346.808 750.077 L 346.808 751.308 C 346.808 751.646 347.085 751.923 347.423 751.923 C 347.762 751.923 348.038 751.646 348.038 751.308 L 348.038 750.077 C 348.038 749.738 347.762 749.462 347.423 749.462 Z  M 350.5 749.462 C 350.162 749.462 349.885 749.738 349.885 750.077 L 349.885 751.308 C 349.885 751.646 350.162 751.923 350.5 751.923 C 350.838 751.923 351.115 751.646 351.115 751.308 L 351.115 750.077 C 351.115 749.738 350.838 749.462 350.5 749.462 Z  M 353.577 749.462 C 353.238 749.462 352.962 749.738 352.962 750.077 L 352.962 751.308 C 352.962 751.646 353.238 751.923 353.577 751.923 C 353.915 751.923 354.192 751.646 354.192 751.308 L 354.192 750.077 C 354.192 749.738 353.915 749.462 353.577 749.462 Z  M 356.654 749.462 C 356.315 749.462 356.038 749.738 356.038 750.077 L 356.038 751.308 C 356.038 751.646 356.315 751.923 356.654 751.923 C 356.992 751.923 357.269 751.646 357.269 751.308 L 357.269 750.077 C 357.269 749.738 356.992 749.462 356.654 749.462 Z  M 359.731 749.462 C 359.392 749.462 359.115 749.738 359.115 750.077 L 359.115 751.308 C 359.115 751.646 359.392 751.923 359.731 751.923 C 360.069 751.923 360.346 751.646 360.346 751.308 L 360.346 750.077 C 360.346 749.738 360.069 749.462 359.731 749.462 Z  M 362.808 749.462 C 362.469 749.462 362.192 749.738 362.192 750.077 L 362.192 751.308 C 362.192 751.646 362.469 751.923 362.808 751.923 C 363.146 751.923 363.423 751.646 363.423 751.308 L 363.423 750.077 C 363.423 749.738 363.146 749.462 362.808 749.462 Z " fill="rgb(0,0,0)"/></svg>