<?xml version="1.0" standalone="no"?><!-- Generator: Gravit.io --><svg xmlns="http://www.w3.org/2000/svg" xmlns:xlink="http://www.w3.org/1999/xlink" style="isolation:isolate" viewBox="200.1 723 32 32" width="32" height="32"><path d=" M 204.408 723 C 202.032 723 200.1 724.932 200.1 727.308 L 200.1 750.692 C 200.1 753.068 202.032 755 204.408 755 L 227.792 755 C 230.168 755 232.1 753.068 232.1 750.692 L 232.1 727.308 C 232.1 724.932 230.168 723 227.792 723 L 204.408 723 Z  M 204.408 724.231 L 227.792 724.231 C 229.49 724.231 230.869 725.61 230.869 727.308 L 230.869 750.692 C 230.869 752.39 229.49 753.769 227.792 753.769 L 204.408 753.769 C 202.71 753.769 201.331 752.39 201.331 750.692 L 201.331 727.308 C 201.331 725.61 202.71 724.231 204.408 724.231 Z  M 203.792 726.692 C 203.452 726.692 203.177 726.968 203.177 727.308 L 203.177 728.538 C 203.177 728.878 203.452 729.154 203.792 729.154 C 204.132 729.154 204.408 728.878 204.408 728.538 L 204.408 727.308 C 204.408 726.968 204.132 726.692 203.792 726.692 Z  M 206.869 726.692 C 206.529 726.692 206.254 726.968 206.254 727.308 L 206.254 728.538 C 206.254 728.878 206.529 729.154 206.869 729.154 C 207.209 729.154 207.485 728.878 207.485 728.538 L 207.485 727.308 C 207.485 726.968 207.209 726.692 206.869 726.692 Z  M 209.946 726.692 C 209.606 726.692 209.331 726.968 209.331 727.308 L 209.331 728.538 C 209.331 728.878 209.606 729.154 209.946 729.154 C 210.286 729.154 210.562 728.878 210.562 728.538 L 210.562 727.308 C 210.562 726.968 210.286 726.692 209.946 726.692 Z  M 213.023 726.692 C 212.683 726.692 212.408 726.968 212.408 727.308 L 212.408 728.538 C 212.408 728.878 212.683 729.154 213.023 729.154 C 213.363 729.154 213.638 728.878 213.638 728.538 L 213.638 727.308 C 213.638 726.968 213.363 726.692 213.023 726.692 Z  M 216.1 726.692 C 215.76 726.692 215.485 726.968 215.485 727.308 L 215.485 728.538 C 215.485 728.878 215.76 729.154 216.1 729.154 C 216.44 729.154 216.715 728.878 216.715 728.538 L 216.715 727.308 C 216.715 726.968 216.44 726.692 216.1 726.692 Z  M 219.177 726.692 C 218.837 726.692 218.562 726.968 218.562 727.308 L 218.562 728.538 C 218.562 728.878 218.837 729.154 219.177 729.154 C 219.517 729.154 219.792 728.878 219.792 728.538 L 219.792 727.308 C 219.792 726.968 219.517 726.692 219.177 726.692 Z  M 222.254 726.692 C 221.914 726.692 221.638 726.968 221.638 727.308 L 221.638 728.538 C 221.638 728.878 221.914 729.154 222.254 729.154 C 222.594 729.154 222.869 728.878 222.869 728.538 L 222.869 727.308 C 222.869 726.968 222.594 726.692 222.254 726.692 Z  M 225.331 726.692 C 224.991 726.692 224.715 726.968 224.715 727.308 L 224.715 728.538 C 224.715 728.878 224.991 729.154 225.331 729.154 C 225.671 729.154 225.946 728.878 225.946 728.538 L 225.946 727.308 C 225.946 726.968 225.671 726.692 225.331 726.692 Z  M 228.408 726.692 C 228.068 726.692 227.792 726.968 227.792 727.308 L 227.792 728.538 C 227.792 728.878 228.068 729.154 228.408 729.154 C 228.748 729.154 229.023 728.878 229.023 728.538 L 229.023 727.308 C 229.023 726.968 228.748 726.692 228.408 726.692 Z  M 208.408 730.385 C 206.882 730.385 205.638 731.628 205.638 733.154 C 205.638 734.68 206.882 735.923 208.408 735.923 C 209.934 735.923 211.177 734.68 211.177 733.154 C 211.177 731.628 209.934 730.385 208.408 730.385 Z  M 208.408 731.414 C 209.368 731.415 210.147 732.193 210.148 733.154 C 210.147 734.114 209.368 734.893 208.408 734.894 C 207.447 734.893 206.669 734.114 206.667 733.154 C 206.669 732.193 207.447 731.415 208.408 731.414 L 208.408 731.414 Z  M 220.946 736.192 C 219.521 736.192 218.394 736.695 217.598 737.346 L 217.598 737.137 C 217.598 736.797 217.322 736.521 216.982 736.521 L 213.023 736.521 C 212.685 736.521 212.408 736.798 212.408 737.137 L 212.408 750.692 C 212.408 751.031 212.685 751.308 213.023 751.308 L 217.148 751.308 C 217.488 751.308 217.763 751.032 217.763 750.692 L 217.763 743.854 C 217.763 741.815 218.268 741.058 219.626 741.058 C 220.934 741.058 221.155 741.954 221.155 743.964 L 221.155 750.692 C 221.155 751.032 221.431 751.308 221.771 751.308 L 225.898 751.308 C 226.238 751.308 226.514 751.032 226.514 750.692 L 226.514 743.137 C 226.516 739.705 225.855 736.193 220.946 736.193 L 220.946 736.192 Z  M 206.254 736.538 C 205.914 736.538 205.638 736.814 205.638 737.154 L 205.638 750.692 C 205.638 751.032 205.914 751.308 206.254 751.308 L 210.562 751.308 C 210.901 751.308 211.177 751.032 211.177 750.692 L 211.177 737.154 C 211.177 736.814 210.901 736.538 210.562 736.538 L 206.254 736.538 Z  M 220.946 737.423 C 224.559 737.423 225.285 739.608 225.285 743.137 L 225.285 750.077 L 222.386 750.077 L 222.386 743.961 C 222.386 742.517 222.386 739.825 219.626 739.825 C 216.533 739.825 216.533 742.856 216.533 743.854 L 216.533 750.077 L 213.638 750.077 L 213.638 737.753 L 216.37 737.753 L 216.37 738.954 C 216.37 739.293 216.699 739.57 217.04 739.57 C 217.268 739.57 217.477 739.442 217.583 739.241 C 218.026 738.401 219.172 737.423 220.946 737.423 Z  M 206.869 737.769 L 209.946 737.769 L 209.946 750.077 L 206.869 750.077 L 206.869 737.769 Z " fill="rgb(0,0,0)"/></svg>