<?xml version="1.0" standalone="no"?><!-- Generator: Gravit.io --><svg xmlns="http://www.w3.org/2000/svg" xmlns:xlink="http://www.w3.org/1999/xlink" style="isolation:isolate" viewBox="244.9 723 32 32" width="32" height="32"><path d=" M 249.208 723 C 246.832 723 244.9 724.932 244.9 727.308 L 244.9 750.692 C 244.9 753.068 246.832 755 249.208 755 L 272.592 755 C 274.968 755 276.9 753.068 276.9 750.692 L 276.9 727.308 C 276.9 724.932 274.968 723 272.592 723 L 249.208 723 Z  M 249.208 724.231 L 272.592 724.231 C 274.29 724.231 275.669 725.61 275.669 727.308 L 275.669 750.692 C 275.669 752.39 274.29 753.769 272.592 753.769 L 249.208 753.769 C 247.51 753.769 246.131 752.39 246.131 750.692 L 246.131 727.308 C 246.131 725.61 247.51 724.231 249.208 724.231 Z  M 248.592 726.692 C 248.252 726.692 247.977 726.968 247.977 727.308 L 247.977 728.538 C 247.977 728.878 248.252 729.154 248.592 729.154 C 248.932 729.154 249.208 728.878 249.208 728.538 L 249.208 727.308 C 249.208 726.968 248.932 726.692 248.592 726.692 Z  M 251.669 726.692 C 251.329 726.692 251.054 726.968 251.054 727.308 L 251.054 728.538 C 251.054 728.878 251.329 729.154 251.669 729.154 C 252.009 729.154 252.285 728.878 252.285 728.538 L 252.285 727.308 C 252.285 726.968 252.009 726.692 251.669 726.692 Z  M 254.746 726.692 C 254.406 726.692 254.131 726.968 254.131 727.308 L 254.131 728.538 C 254.131 728.878 254.406 729.154 254.746 729.154 C 255.086 729.154 255.362 728.878 255.362 728.538 L 255.362 727.308 C 255.362 726.968 255.086 726.692 254.746 726.692 Z  M 257.823 726.692 C 257.483 726.692 257.208 726.968 257.208 727.308 L 257.208 728.538 C 257.208 728.878 257.483 729.154 257.823 729.154 C 258.163 729.154 258.438 728.878 258.438 728.538 L 258.438 727.308 C 258.438 726.968 258.163 726.692 257.823 726.692 Z  M 260.9 726.692 C 260.56 726.692 260.285 726.968 260.285 727.308 L 260.285 728.538 C 260.285 728.878 260.56 729.154 260.9 729.154 C 261.24 729.154 261.515 728.878 261.515 728.538 L 261.515 727.308 C 261.515 726.968 261.24 726.692 260.9 726.692 Z  M 263.977 726.692 C 263.637 726.692 263.362 726.968 263.362 727.308 L 263.362 728.538 C 263.362 728.878 263.637 729.154 263.977 729.154 C 264.317 729.154 264.592 728.878 264.592 728.538 L 264.592 727.308 C 264.592 726.968 264.317 726.692 263.977 726.692 Z  M 267.054 726.692 C 266.714 726.692 266.438 726.968 266.438 727.308 L 266.438 728.538 C 266.438 728.878 266.714 729.154 267.054 729.154 C 267.394 729.154 267.669 728.878 267.669 728.538 L 267.669 727.308 C 267.669 726.968 267.394 726.692 267.054 726.692 Z  M 270.131 726.692 C 269.791 726.692 269.515 726.968 269.515 727.308 L 269.515 728.538 C 269.515 728.878 269.791 729.154 270.131 729.154 C 270.471 729.154 270.746 728.878 270.746 728.538 L 270.746 727.308 C 270.746 726.968 270.471 726.692 270.131 726.692 Z  M 273.208 726.692 C 272.868 726.692 272.592 726.968 272.592 727.308 L 272.592 728.538 C 272.592 728.878 272.868 729.154 273.208 729.154 C 273.548 729.154 273.823 728.878 273.823 728.538 L 273.823 727.308 C 273.823 726.968 273.548 726.692 273.208 726.692 Z  M 265.486 732.106 C 262.837 732.106 260.682 734.26 260.682 736.909 C 260.682 737.036 260.686 737.164 260.696 737.289 C 257.665 736.958 254.886 735.447 252.96 733.084 C 252.848 732.947 252.676 732.872 252.499 732.884 C 252.322 732.899 252.164 733 252.075 733.154 C 251.649 733.887 251.424 734.719 251.424 735.567 C 251.424 736.471 251.677 737.339 252.133 738.087 C 251.968 738.019 251.781 738.037 251.632 738.136 C 251.484 738.234 251.393 738.399 251.39 738.577 L 251.39 738.637 C 251.392 740.102 252.061 741.487 253.208 742.399 C 252.955 742.511 252.827 742.794 252.91 743.057 C 253.379 744.521 254.52 745.672 255.979 746.154 C 254.794 746.805 253.464 747.144 252.112 747.14 C 251.794 747.14 251.476 747.121 251.16 747.084 C 250.909 747.052 250.67 747.199 250.584 747.437 C 250.499 747.675 250.59 747.94 250.804 748.075 C 252.84 749.384 255.21 750.079 257.631 750.077 C 262.398 750.077 265.381 747.827 267.044 745.94 C 269.117 743.589 270.304 740.478 270.304 737.404 C 270.304 737.308 270.304 737.212 270.301 737.115 C 271.092 736.507 271.778 735.773 272.33 734.943 C 272.465 734.744 272.451 734.48 272.294 734.298 C 272.14 734.113 271.882 734.053 271.662 734.151 C 271.522 734.212 271.381 734.27 271.239 734.324 C 271.488 733.952 271.684 733.547 271.821 733.12 C 271.888 732.907 271.817 732.675 271.642 732.535 C 271.468 732.396 271.225 732.378 271.032 732.49 C 270.33 732.908 269.568 733.216 268.773 733.401 C 267.88 732.57 266.706 732.107 265.486 732.106 Z  M 265.486 733.185 C 266.513 733.185 267.503 733.613 268.205 734.363 C 268.334 734.498 268.523 734.558 268.706 734.522 C 269.144 734.435 269.575 734.316 269.996 734.166 C 269.75 734.435 269.467 734.666 269.155 734.854 C 268.936 734.984 268.839 735.25 268.922 735.49 C 269.003 735.73 269.244 735.882 269.496 735.854 C 269.756 735.82 270.013 735.779 270.268 735.726 C 270.006 735.974 269.73 736.202 269.436 736.414 C 269.289 736.52 269.205 736.693 269.213 736.875 C 269.22 737.05 269.227 737.226 269.227 737.404 C 269.227 744.661 263.33 748.998 257.631 748.998 C 256.128 748.998 254.653 748.706 253.275 748.146 C 254.905 747.943 256.449 747.297 257.739 746.279 C 257.919 746.138 257.992 745.899 257.919 745.682 C 257.846 745.467 257.647 745.32 257.419 745.315 C 256.136 745.292 254.954 744.61 254.292 743.51 C 254.697 743.503 255.1 743.447 255.491 743.342 C 255.733 743.276 255.899 743.053 255.89 742.802 C 255.881 742.551 255.701 742.34 255.455 742.291 C 254.003 741.998 252.883 740.87 252.563 739.442 C 252.978 739.572 253.408 739.644 253.842 739.656 C 254.085 739.676 254.301 739.512 254.374 739.284 C 254.448 739.054 254.361 738.804 254.16 738.671 C 253.124 737.979 252.502 736.815 252.503 735.569 C 252.503 735.175 252.566 734.783 252.686 734.414 C 254.931 736.815 258.02 738.252 261.304 738.421 C 261.473 738.431 261.638 738.359 261.746 738.228 C 261.854 738.098 261.896 737.925 261.859 737.759 C 261.602 736.652 261.863 735.488 262.569 734.597 C 263.276 733.706 264.35 733.186 265.487 733.185 L 265.486 733.185 Z " fill="rgb(0,0,0)"/></svg>